<svg xmlns="http://www.w3.org/2000/svg" xmlns:xlink="http://www.w3.org/1999/xlink" width="160" viewBox="0 0 120 67.499998" height="90" preserveAspectRatio="xMidYMid meet"><defs><g></g></defs><path fill="#117bbe" d="M 18.074219 40.367188 L 18.074219 22.109375 L 21.582031 22.109375 L 21.582031 40.367188 Z M 20.660156 38.804688 L 20.734375 33.191406 L 24.816406 27.902344 L 28.96875 27.902344 L 24.445312 34.152344 L 22.671875 36.070312 L 20.660156 38.800781 Z M 24.214844 40.367188 L 21.167969 35.25 L 23.308594 31.65625 L 28.460938 40.367188 Z M 24.214844 40.367188 " fill-opacity="1" fill-rule="nonzero"></path><path fill="#117bbe" d="M 44.265625 40.363281 L 44.265625 27.75 L 49.390625 27.75 C 51.078125 27.75 52.371094 28.164062 53.269531 28.992188 C 54.164062 29.824219 54.613281 30.957031 54.613281 32.398438 C 54.613281 33.371094 54.410156 34.203125 54 34.886719 C 53.589844 35.570312 53 36.097656 52.234375 36.464844 C 51.46875 36.828125 50.558594 37.011719 49.507812 37.011719 L 46.058594 37.011719 L 47.519531 35.5 L 47.519531 40.363281 Z M 47.519531 35.914062 L 46.058594 34.253906 L 49.308594 34.253906 C 49.988281 34.253906 50.496094 34.09375 50.835938 33.769531 C 51.175781 33.445312 51.347656 32.988281 51.347656 32.398438 C 51.347656 31.8125 51.175781 31.386719 50.835938 31.058594 C 50.496094 30.726562 49.988281 30.5625 49.308594 30.5625 L 46.058594 30.5625 L 47.519531 28.921875 Z M 51.363281 40.363281 L 48.503906 35.769531 L 51.972656 35.769531 L 54.84375 40.363281 Z M 51.363281 40.363281 " fill-opacity="1" fill-rule="nonzero"></path><path fill="#117bbe" d="M 58.6875 40.363281 L 58.6875 30.578125 L 55.15625 30.578125 L 55.15625 27.75 L 65.453125 27.75 L 65.453125 30.578125 L 61.941406 30.578125 L 61.941406 40.363281 Z M 58.6875 40.363281 " fill-opacity="1" fill-rule="nonzero"></path><path fill="#117bbe" d="M 66.6875 40.363281 L 66.6875 27.75 L 75.6875 27.75 L 75.6875 30.527344 L 69.886719 30.527344 L 69.886719 37.589844 L 75.898438 37.589844 L 75.898438 40.363281 Z M 69.660156 35.28125 L 69.660156 32.632812 L 74.996094 32.632812 L 74.996094 35.28125 Z M 69.660156 35.28125 " fill-opacity="1" fill-rule="nonzero"></path><path fill="#117bbe" d="M 77.148438 40.363281 L 77.148438 38.113281 L 83.898438 29.300781 L 84.292969 30.578125 L 77.28125 30.578125 L 77.28125 27.75 L 87.183594 27.75 L 87.183594 30.003906 L 80.417969 38.816406 L 80.023438 37.535156 L 87.429688 37.535156 L 87.429688 40.363281 Z M 77.148438 40.363281 " fill-opacity="1" fill-rule="nonzero"></path><path fill="#117bbe" d="M 91.765625 40.363281 L 91.765625 35.03125 L 92.519531 37.175781 L 87.363281 27.75 L 90.8125 27.75 L 94.507812 34.582031 L 92.539062 34.582031 L 96.265625 27.75 L 99.417969 27.75 L 94.3125 37.175781 L 95.019531 35.03125 L 95.019531 40.363281 Z M 91.765625 40.363281 " fill-opacity="1" fill-rule="nonzero"></path><path fill="#117bbe" d="M 96.460938 40.363281 L 101.824219 27.902344 L 105.210938 27.902344 L 110.59375 40.363281 L 107.015625 40.363281 L 102.816406 29.628906 L 104.167969 29.628906 L 99.96875 40.363281 Z M 101.484375 40.363281 L 102.371094 37.78125 L 108.308594 37.78125 C 108.308594 37.78125 109.191406 40.363281 109.191406 40.363281 Z M 101.484375 40.363281 " fill-opacity="1" fill-rule="nonzero"></path><path fill="#117bbe" d="M 29.375 40.363281 L 34.738281 27.902344 L 38.125 27.902344 L 43.507812 40.363281 L 39.929688 40.363281 L 35.730469 29.628906 L 37.082031 29.628906 L 32.882812 40.363281 Z M 34.398438 40.363281 L 35.285156 37.78125 L 41.222656 37.78125 C 41.222656 37.78125 42.109375 40.363281 42.109375 40.363281 Z M 34.398438 40.363281 " fill-opacity="1" fill-rule="nonzero"></path><g fill="#ffffff" fill-opacity="1"><g transform="translate(82.76861, 24.393564)"><g><path d="M 1.6875 -3.71875 L 2.28125 -3.9375 L 2.015625 -2.890625 L 2.796875 -2.890625 L 2.734375 -2.625 L 1.953125 -2.625 L 1.625 -1.375 C 1.53125 -1 1.484375 -0.738281 1.484375 -0.59375 C 1.484375 -0.53125 1.492188 -0.484375 1.515625 -0.453125 C 1.546875 -0.421875 1.585938 -0.40625 1.640625 -0.40625 C 1.710938 -0.40625 1.832031 -0.453125 2 -0.546875 C 2.207031 -0.671875 2.40625 -0.804688 2.59375 -0.953125 L 2.734375 -0.78125 C 2.179688 -0.375 1.8125 -0.125 1.625 -0.03125 C 1.445312 0.0625 1.300781 0.109375 1.1875 0.109375 C 1.101562 0.109375 1.03125 0.0703125 0.96875 0 C 0.914062 -0.0625 0.890625 -0.171875 0.890625 -0.328125 C 0.890625 -0.503906 0.9375 -0.773438 1.03125 -1.140625 L 1.421875 -2.625 L 0.8125 -2.625 L 0.890625 -2.890625 L 1.484375 -2.890625 Z M 1.6875 -3.71875 "></path></g></g></g><g fill="#ffffff" fill-opacity="1"><g transform="translate(85.082262, 24.393564)"><g><path d="M 2.5 -3.140625 C 2.738281 -3.140625 2.9375 -3.039062 3.09375 -2.84375 C 3.257812 -2.65625 3.34375 -2.382812 3.34375 -2.03125 C 3.34375 -1.476562 3.148438 -0.984375 2.765625 -0.546875 C 2.378906 -0.109375 1.96875 0.109375 1.53125 0.109375 C 1.269531 0.109375 1.054688 0.0195312 0.890625 -0.15625 C 0.734375 -0.332031 0.65625 -0.566406 0.65625 -0.859375 C 0.65625 -1.390625 0.800781 -1.875 1.09375 -2.3125 C 1.46875 -2.863281 1.9375 -3.140625 2.5 -3.140625 Z M 2.1875 -2.859375 C 1.96875 -2.859375 1.757812 -2.707031 1.5625 -2.40625 C 1.363281 -2.101562 1.265625 -1.6875 1.265625 -1.15625 C 1.265625 -0.832031 1.328125 -0.578125 1.453125 -0.390625 C 1.546875 -0.253906 1.664062 -0.1875 1.8125 -0.1875 C 2.019531 -0.1875 2.210938 -0.316406 2.390625 -0.578125 C 2.609375 -0.910156 2.71875 -1.328125 2.71875 -1.828125 C 2.71875 -2.191406 2.664062 -2.453125 2.5625 -2.609375 C 2.457031 -2.773438 2.332031 -2.859375 2.1875 -2.859375 Z M 2.1875 -2.859375 "></path></g></g></g><g fill="#ffffff" fill-opacity="1"><g transform="translate(88.00773, 24.393564)"><g><path d="M 3.15625 -3.15625 L 3.46875 -3.234375 C 3.28125 -2.648438 3.113281 -2.066406 2.96875 -1.484375 C 2.851562 -1.066406 2.773438 -0.71875 2.734375 -0.4375 C 2.710938 -0.300781 2.703125 -0.125 2.703125 0.09375 C 2.691406 0.445312 2.648438 0.734375 2.578125 0.953125 C 2.472656 1.265625 2.273438 1.515625 1.984375 1.703125 C 1.703125 1.890625 1.367188 1.984375 0.984375 1.984375 C 0.648438 1.984375 0.382812 1.898438 0.1875 1.734375 C 0 1.578125 -0.09375 1.398438 -0.09375 1.203125 C -0.09375 0.992188 -0.0195312 0.804688 0.125 0.640625 C 0.238281 0.503906 0.476562 0.34375 0.84375 0.15625 C 1.03125 0.0625 1.203125 -0.0351562 1.359375 -0.140625 C 1.179688 -0.046875 1.039062 0 0.9375 0 C 0.84375 0 0.757812 -0.0390625 0.6875 -0.125 C 0.613281 -0.207031 0.578125 -0.320312 0.578125 -0.46875 C 0.578125 -0.925781 0.710938 -1.378906 0.984375 -1.828125 C 1.265625 -2.285156 1.597656 -2.625 1.984375 -2.84375 C 2.210938 -2.988281 2.503906 -3.0625 2.859375 -3.0625 C 2.929688 -3.0625 3.019531 -3.054688 3.125 -3.046875 Z M 2.734375 -2.609375 C 2.617188 -2.628906 2.515625 -2.640625 2.421875 -2.640625 C 2.191406 -2.640625 1.988281 -2.578125 1.8125 -2.453125 C 1.644531 -2.328125 1.503906 -2.117188 1.390625 -1.828125 C 1.222656 -1.410156 1.140625 -1.0625 1.140625 -0.78125 C 1.140625 -0.664062 1.171875 -0.566406 1.234375 -0.484375 C 1.296875 -0.410156 1.367188 -0.375 1.453125 -0.375 C 1.554688 -0.375 1.679688 -0.421875 1.828125 -0.515625 C 1.972656 -0.609375 2.09375 -0.726562 2.1875 -0.875 C 2.28125 -1.019531 2.375 -1.269531 2.46875 -1.625 Z M 2.234375 -0.578125 C 2.066406 -0.421875 1.738281 -0.175781 1.25 0.15625 C 0.832031 0.4375 0.570312 0.640625 0.46875 0.765625 C 0.375 0.898438 0.328125 1.039062 0.328125 1.1875 C 0.328125 1.320312 0.390625 1.445312 0.515625 1.5625 C 0.640625 1.675781 0.789062 1.734375 0.96875 1.734375 C 1.144531 1.734375 1.3125 1.691406 1.46875 1.609375 C 1.625 1.523438 1.757812 1.40625 1.875 1.25 C 2 1.09375 2.082031 0.914062 2.125 0.71875 C 2.164062 0.519531 2.191406 0.253906 2.203125 -0.078125 C 2.203125 -0.148438 2.210938 -0.316406 2.234375 -0.578125 Z M 2.234375 -0.578125 "></path></g></g></g><g fill="#ffffff" fill-opacity="1"><g transform="translate(90.933198, 24.393564)"><g><path d="M 2.609375 -0.9375 L 2.734375 -0.765625 C 2.117188 -0.191406 1.59375 0.09375 1.15625 0.09375 C 0.976562 0.09375 0.84375 0.0351562 0.75 -0.078125 C 0.65625 -0.203125 0.609375 -0.394531 0.609375 -0.65625 C 0.609375 -1.1875 0.769531 -1.71875 1.09375 -2.25 C 1.457031 -2.84375 1.894531 -3.140625 2.40625 -3.140625 C 2.582031 -3.140625 2.71875 -3.09375 2.8125 -3 C 2.90625 -2.914062 2.953125 -2.800781 2.953125 -2.65625 C 2.953125 -2.488281 2.894531 -2.328125 2.78125 -2.171875 C 2.664062 -2.015625 2.460938 -1.851562 2.171875 -1.6875 C 2.035156 -1.601562 1.726562 -1.453125 1.25 -1.234375 C 1.226562 -1.097656 1.21875 -0.972656 1.21875 -0.859375 C 1.21875 -0.679688 1.242188 -0.554688 1.296875 -0.484375 C 1.359375 -0.410156 1.441406 -0.375 1.546875 -0.375 C 1.648438 -0.375 1.765625 -0.40625 1.890625 -0.46875 C 2.046875 -0.539062 2.285156 -0.695312 2.609375 -0.9375 Z M 1.296875 -1.484375 C 1.703125 -1.660156 2.003906 -1.851562 2.203125 -2.0625 C 2.335938 -2.195312 2.40625 -2.335938 2.40625 -2.484375 C 2.40625 -2.585938 2.375 -2.671875 2.3125 -2.734375 C 2.257812 -2.796875 2.191406 -2.828125 2.109375 -2.828125 C 2.015625 -2.828125 1.921875 -2.796875 1.828125 -2.734375 C 1.710938 -2.640625 1.617188 -2.5 1.546875 -2.3125 C 1.429688 -2.039062 1.347656 -1.765625 1.296875 -1.484375 Z M 1.296875 -1.484375 "></path></g></g></g><g fill="#ffffff" fill-opacity="1"><g transform="translate(93.399804, 24.393564)"><g><path d="M 1.6875 -3.71875 L 2.28125 -3.9375 L 2.015625 -2.890625 L 2.796875 -2.890625 L 2.734375 -2.625 L 1.953125 -2.625 L 1.625 -1.375 C 1.53125 -1 1.484375 -0.738281 1.484375 -0.59375 C 1.484375 -0.53125 1.492188 -0.484375 1.515625 -0.453125 C 1.546875 -0.421875 1.585938 -0.40625 1.640625 -0.40625 C 1.710938 -0.40625 1.832031 -0.453125 2 -0.546875 C 2.207031 -0.671875 2.40625 -0.804688 2.59375 -0.953125 L 2.734375 -0.78125 C 2.179688 -0.375 1.8125 -0.125 1.625 -0.03125 C 1.445312 0.0625 1.300781 0.109375 1.1875 0.109375 C 1.101562 0.109375 1.03125 0.0703125 0.96875 0 C 0.914062 -0.0625 0.890625 -0.171875 0.890625 -0.328125 C 0.890625 -0.503906 0.9375 -0.773438 1.03125 -1.140625 L 1.421875 -2.625 L 0.8125 -2.625 L 0.890625 -2.890625 L 1.484375 -2.890625 Z M 1.6875 -3.71875 "></path></g></g></g><g fill="#ffffff" fill-opacity="1"><g transform="translate(95.713455, 24.393564)"><g><path d="M 3.640625 -0.796875 L 3.734375 -0.65625 C 3.515625 -0.394531 3.28125 -0.191406 3.03125 -0.046875 C 2.875 0.0546875 2.738281 0.109375 2.625 0.109375 C 2.539062 0.109375 2.472656 0.0703125 2.421875 0 C 2.367188 -0.0703125 2.34375 -0.179688 2.34375 -0.328125 C 2.34375 -0.421875 2.363281 -0.5625 2.40625 -0.75 C 2.445312 -0.945312 2.5625 -1.359375 2.75 -1.984375 C 2.832031 -2.296875 2.875 -2.476562 2.875 -2.53125 C 2.875 -2.613281 2.832031 -2.65625 2.75 -2.65625 C 2.644531 -2.65625 2.515625 -2.601562 2.359375 -2.5 C 2.140625 -2.351562 1.945312 -2.164062 1.78125 -1.9375 C 1.664062 -1.800781 1.578125 -1.585938 1.515625 -1.296875 L 1.21875 0 L 0.671875 0 C 0.785156 -0.4375 0.875 -0.796875 0.9375 -1.078125 L 1.484375 -3.46875 C 1.585938 -3.90625 1.71875 -4.242188 1.875 -4.484375 C 2.039062 -4.722656 2.253906 -4.910156 2.515625 -5.046875 C 2.773438 -5.191406 3.035156 -5.265625 3.296875 -5.265625 C 3.398438 -5.265625 3.484375 -5.238281 3.546875 -5.1875 C 3.609375 -5.132812 3.640625 -5.066406 3.640625 -4.984375 C 3.640625 -4.921875 3.609375 -4.863281 3.546875 -4.8125 C 3.492188 -4.757812 3.414062 -4.734375 3.3125 -4.734375 C 3.25 -4.734375 3.171875 -4.738281 3.078125 -4.75 C 2.859375 -4.78125 2.707031 -4.796875 2.625 -4.796875 C 2.507812 -4.796875 2.414062 -4.75 2.34375 -4.65625 C 2.28125 -4.5625 2.207031 -4.347656 2.125 -4.015625 L 1.703125 -2.171875 C 2.003906 -2.484375 2.328125 -2.742188 2.671875 -2.953125 C 2.878906 -3.078125 3.046875 -3.140625 3.171875 -3.140625 C 3.265625 -3.140625 3.335938 -3.109375 3.390625 -3.046875 C 3.453125 -2.992188 3.484375 -2.914062 3.484375 -2.8125 C 3.484375 -2.726562 3.472656 -2.644531 3.453125 -2.5625 C 3.421875 -2.414062 3.34375 -2.148438 3.21875 -1.765625 C 3.0625 -1.234375 2.96875 -0.898438 2.9375 -0.765625 C 2.90625 -0.640625 2.890625 -0.523438 2.890625 -0.421875 C 2.890625 -0.378906 2.894531 -0.347656 2.90625 -0.328125 C 2.925781 -0.304688 2.945312 -0.296875 2.96875 -0.296875 C 3.03125 -0.296875 3.144531 -0.367188 3.3125 -0.515625 C 3.40625 -0.585938 3.515625 -0.679688 3.640625 -0.796875 Z M 3.640625 -0.796875 "></path></g></g></g><g fill="#ffffff" fill-opacity="1"><g transform="translate(98.944832, 24.393564)"><g><path d="M 2.609375 -0.9375 L 2.734375 -0.765625 C 2.117188 -0.191406 1.59375 0.09375 1.15625 0.09375 C 0.976562 0.09375 0.84375 0.0351562 0.75 -0.078125 C 0.65625 -0.203125 0.609375 -0.394531 0.609375 -0.65625 C 0.609375 -1.1875 0.769531 -1.71875 1.09375 -2.25 C 1.457031 -2.84375 1.894531 -3.140625 2.40625 -3.140625 C 2.582031 -3.140625 2.71875 -3.09375 2.8125 -3 C 2.90625 -2.914062 2.953125 -2.800781 2.953125 -2.65625 C 2.953125 -2.488281 2.894531 -2.328125 2.78125 -2.171875 C 2.664062 -2.015625 2.460938 -1.851562 2.171875 -1.6875 C 2.035156 -1.601562 1.726562 -1.453125 1.25 -1.234375 C 1.226562 -1.097656 1.21875 -0.972656 1.21875 -0.859375 C 1.21875 -0.679688 1.242188 -0.554688 1.296875 -0.484375 C 1.359375 -0.410156 1.441406 -0.375 1.546875 -0.375 C 1.648438 -0.375 1.765625 -0.40625 1.890625 -0.46875 C 2.046875 -0.539062 2.285156 -0.695312 2.609375 -0.9375 Z M 1.296875 -1.484375 C 1.703125 -1.660156 2.003906 -1.851562 2.203125 -2.0625 C 2.335938 -2.195312 2.40625 -2.335938 2.40625 -2.484375 C 2.40625 -2.585938 2.375 -2.671875 2.3125 -2.734375 C 2.257812 -2.796875 2.191406 -2.828125 2.109375 -2.828125 C 2.015625 -2.828125 1.921875 -2.796875 1.828125 -2.734375 C 1.710938 -2.640625 1.617188 -2.5 1.546875 -2.3125 C 1.429688 -2.039062 1.347656 -1.765625 1.296875 -1.484375 Z M 1.296875 -1.484375 "></path></g></g></g><g fill="#ffffff" fill-opacity="1"><g transform="translate(101.411437, 24.393564)"><g><path d="M 1.34375 0 L 0.78125 0 L 1.046875 -1 C 1.171875 -1.5 1.28125 -1.96875 1.375 -2.40625 C 1.394531 -2.519531 1.40625 -2.585938 1.40625 -2.609375 C 1.40625 -2.671875 1.378906 -2.703125 1.328125 -2.703125 C 1.285156 -2.703125 1.226562 -2.675781 1.15625 -2.625 C 1.082031 -2.570312 0.941406 -2.445312 0.734375 -2.25 L 0.625 -2.375 C 0.863281 -2.632812 1.097656 -2.828125 1.328125 -2.953125 C 1.566406 -3.078125 1.753906 -3.140625 1.890625 -3.140625 C 1.929688 -3.140625 1.960938 -3.128906 1.984375 -3.109375 C 2.015625 -3.085938 2.03125 -3.0625 2.03125 -3.03125 C 2.03125 -3 2.015625 -2.914062 1.984375 -2.78125 L 1.828125 -2.109375 C 2.078125 -2.503906 2.359375 -2.84375 2.671875 -3.125 C 2.828125 -3.257812 2.953125 -3.328125 3.046875 -3.328125 C 3.117188 -3.328125 3.179688 -3.300781 3.234375 -3.25 C 3.285156 -3.195312 3.3125 -3.140625 3.3125 -3.078125 C 3.3125 -3.015625 3.285156 -2.957031 3.234375 -2.90625 C 3.191406 -2.863281 3.070312 -2.804688 2.875 -2.734375 C 2.6875 -2.679688 2.535156 -2.609375 2.421875 -2.515625 C 2.304688 -2.429688 2.179688 -2.296875 2.046875 -2.109375 C 1.910156 -1.929688 1.8125 -1.773438 1.75 -1.640625 C 1.695312 -1.515625 1.613281 -1.207031 1.5 -0.71875 Z M 1.34375 0 "></path></g></g></g><g fill="#ffffff" fill-opacity="1"><g transform="translate(103.572136, 24.393564)"><g><path d="M 0.96875 -0.8125 C 1.0625 -0.8125 1.140625 -0.769531 1.203125 -0.6875 C 1.273438 -0.613281 1.3125 -0.523438 1.3125 -0.421875 C 1.3125 -0.253906 1.269531 -0.125 1.1875 -0.03125 C 1.113281 0.0507812 1.019531 0.09375 0.90625 0.09375 C 0.800781 0.09375 0.71875 0.0625 0.65625 0 C 0.59375 -0.0703125 0.5625 -0.160156 0.5625 -0.265625 C 0.5625 -0.421875 0.601562 -0.554688 0.6875 -0.671875 C 0.757812 -0.765625 0.851562 -0.8125 0.96875 -0.8125 Z M 0.96875 -0.8125 "></path></g></g></g></svg>